<svg xmlns="http://www.w3.org/2000/svg" class="ionicon">
<symbol id="menu-outline" viewBox="0 0 512 512">
<title>Menu Outline</title>
<path fill="none" stroke="currentColor" stroke-linecap="round" stroke-miterlimit="10" stroke-width="32" d="M80 160h352M80 256h352M80 352h352" />
</symbol>

<symbol id="close-outline" viewBox="0 0 512 512">
<title>Close Outline</title>
<path fill="none" stroke="currentColor" stroke-linecap="round" stroke-linejoin="round" stroke-width="32" d="M368 368L144 144M368 144L144 368" />
</symbol>

<symbol id="caret-back-outline" viewBox="0 0 512 512">
<title>Caret Back Outline</title>
<path d="M321.94 98L158.82 237.78a24 24 0 000 36.44L321.94 414c15.57 13.34 39.62 2.28 39.62-18.22v-279.6c0-20.5-24.05-31.56-39.62-18.18z" />
</symbol>

<symbol id="caret-forward-outline" viewBox="0 0 512 512">
<title>Caret Forward Outline</title>
<path d="M190.06 414l163.12-139.78a24 24 0 000-36.44L190.06 98c-15.57-13.34-39.62-2.28-39.62 18.22v279.6c0 20.5 24.05 31.56 39.62 18.18z" />
</symbol>

<symbol id="open-outline" viewBox="0 0 512 512">
<title>Open Outline</title>
<path d="M384 224v184a40 40 0 01-40 40H104a40 40 0 01-40-40V168a40 40 0 0140-40h167.48M336 64h112v112M224 288L440 72" fill="none" stroke="currentColor" stroke-linecap="round" stroke-linejoin="round" stroke-width="32" />
</symbol>

<symbol id="sparkles" viewBox="0 0 512 512">
<title>Sparkles</title>
<path d="M208 512a24.84 24.84 0 01-23.34-16l-39.84-103.6a16.06 16.06 0 00-9.19-9.19L32 343.34a25 25 0 010-46.68l103.6-39.84a16.06 16.06 0 009.19-9.19L184.66 144a25 25 0 0146.68 0l39.84 103.6a16.06 16.06 0 009.19 9.19l103 39.63a25.49 25.49 0 0116.63 24.1 24.82 24.82 0 01-16 22.82l-103.6 39.84a16.06 16.06 0 00-9.19 9.19L231.34 496A24.84 24.84 0 01208 512zm66.85-254.84zM88 176a14.67 14.67 0 01-13.69-9.4l-16.86-43.84a7.28 7.28 0 00-4.21-4.21L9.4 101.69a14.67 14.67 0 010-27.38l43.84-16.86a7.31 7.31 0 004.21-4.21L74.16 9.79A15 15 0 0186.23.11a14.67 14.67 0 0115.46 9.29l16.86 43.84a7.31 7.31 0 004.21 4.21l43.84 16.86a14.67 14.67 0 010 27.38l-43.84 16.86a7.28 7.28 0 00-4.21 4.21l-16.86 43.84A14.67 14.67 0 0188 176zM400 256a16 16 0 01-14.93-10.26l-22.84-59.37a8 8 0 00-4.6-4.6l-59.37-22.84a16 16 0 010-29.86l59.37-22.84a8 8 0 004.6-4.6l22.67-58.95a16.45 16.45 0 0113.17-10.57 16 16 0 0116.86 10.15l22.84 59.37a8 8 0 004.6 4.6l59.37 22.84a16 16 0 010 29.86l-59.37 22.84a8 8 0 00-4.6 4.6l-22.84 59.37A16 16 0 01400 256z"/>
</symbol>

<symbol id="star" viewBox="0 0 512 512">
<title>Star</title>
<path d="M394 480a16 16 0 01-9.39-3L256 383.76 127.39 477a16 16 0 01-24.55-18.08L153 310.35 23 221.2a16 16 0 019-29.2h160.38l48.4-148.95a16 16 0 0130.44 0l48.4 149H480a16 16 0 019.05 29.2L359 310.35l50.13 148.53A16 16 0 01394 480z"/>
</symbol>

<symbol id="facebook" viewBox="0 0 512 512">
<title>Logo Facebook</title>
<path d="M480 257.35c0-123.7-100.3-224-224-224s-224 100.3-224 224c0 111.8 81.9 204.47 189 221.29V322.12h-56.89v-64.77H221V208c0-56.13 33.45-87.16 84.61-87.16 24.51 0 50.15 4.38 50.15 4.38v55.13H327.5c-27.81 0-36.51 17.26-36.51 35v42h62.12l-9.92 64.77H291v156.54c107.1-16.81 189-109.48 189-221.31z" fill-rule="evenodd" />
</symbol>

<symbol id="twitter" viewBox="0 0 512 512">
<title>Logo Twitter</title>
<path d="M496 109.5a201.8 201.8 0 01-56.55 15.3 97.51 97.51 0 0043.33-53.6 197.74 197.74 0 01-62.56 23.5A99.14 99.14 0 00348.31 64c-54.42 0-98.46 43.4-98.46 96.9a93.21 93.21 0 002.54 22.1 280.7 280.7 0 01-203-101.3A95.69 95.69 0 0036 130.4c0 33.6 17.53 63.3 44 80.7A97.5 97.5 0 0135.22 199v1.2c0 47 34 86.1 79 95a100.76 100.76 0 01-25.94 3.4 94.38 94.38 0 01-18.51-1.8c12.51 38.5 48.92 66.5 92.05 67.3A199.59 199.59 0 0139.5 405.6a203 203 0 01-23.5-1.4A278.68 278.68 0 00166.74 448c181.36 0 280.44-147.7 280.44-275.8 0-4.2-.11-8.4-.31-12.5A198.48 198.48 0 00496 109.5z"/>
</symbol>

<symbol id="instagram" viewBox="0 0 512 512">
<title>Logo Instagram</title>
<path d="M349.33 69.33a93.62 93.62 0 0193.34 93.34v186.66a93.62 93.62 0 01-93.34 93.34H162.67a93.62 93.62 0 01-93.34-93.34V162.67a93.62 93.62 0 0193.34-93.34h186.66m0-37.33H162.67C90.8 32 32 90.8 32 162.67v186.66C32 421.2 90.8 480 162.67 480h186.66C421.2 480 480 421.2 480 349.33V162.67C480 90.8 421.2 32 349.33 32z"/><path d="M377.33 162.67a28 28 0 1128-28 27.94 27.94 0 01-28 28zM256 181.33A74.67 74.67 0 11181.33 256 74.75 74.75 0 01256 181.33m0-37.33a112 112 0 10112 112 112 112 0 00-112-112z"/>
</symbol>

<symbol id="linkedin" viewBox="0 0 512 512">
<title>Logo Linkedin</title>
<path d="M444.17 32H70.28C49.85 32 32 46.7 32 66.89v374.72C32 461.91 49.85 480 70.28 480h373.78c20.54 0 35.94-18.21 35.94-38.39V66.89C480.12 46.7 464.6 32 444.17 32zm-273.3 373.43h-64.18V205.88h64.18zM141 175.54h-.46c-20.54 0-33.84-15.29-33.84-34.43 0-19.49 13.65-34.42 34.65-34.42s33.85 14.82 34.31 34.42c-.01 19.14-13.31 34.43-34.66 34.43zm264.43 229.89h-64.18V296.32c0-26.14-9.34-44-32.56-44-17.74 0-28.24 12-32.91 23.69-1.75 4.2-2.22 9.92-2.22 15.76v113.66h-64.18V205.88h64.18v27.77c9.34-13.3 23.93-32.44 57.88-32.44 42.13 0 74 27.77 74 87.64z"/>
</symbol>

<symbol id="youtube" viewBox="0 0 512 512">
<title>Logo Youtube</title>
<path d="M508.64 148.79c0-45-33.1-81.2-74-81.2C379.24 65 322.74 64 265 64h-18c-57.6 0-114.2 1-169.6 3.6C36.6 67.6 3.5 104 3.5 149 1 184.59-.06 220.19 0 255.79q-.15 53.4 3.4 106.9c0 45 33.1 81.5 73.9 81.5 58.2 2.7 117.9 3.9 178.6 3.8q91.2.3 178.6-3.8c40.9 0 74-36.5 74-81.5 2.4-35.7 3.5-71.3 3.4-107q.34-53.4-3.26-106.9zM207 353.89v-196.5l145 98.2z"/>
</symbol>
</svg>
