<svg width="130" height="21" viewBox="0 0 130 21" fill="none" xmlns="http://www.w3.org/2000/svg">
<path d="M10.2596 20.655C7.3064 20.655 4.85864 19.6796 2.91632 17.7318C0.971164 15.7811 0 13.371 0 10.496C0 7.62098 0.971164 5.21095 2.91632 3.26307C4.85864 1.31236 7.3064 0.339844 10.2596 0.339844C12.0344 0.339844 13.6729 0.759473 15.1779 1.59873C16.6829 2.43799 17.8557 3.57779 18.6962 5.01247L15.8935 6.63712C15.371 5.66743 14.61 4.89622 13.6104 4.32916C12.6109 3.75925 11.4949 3.47572 10.2596 3.47572C8.16682 3.47572 6.47155 4.13919 5.17383 5.46329C3.87611 6.78739 3.22584 8.46874 3.22584 10.5017C3.22584 12.5346 3.87611 14.216 5.17383 15.5401C6.47155 16.8642 8.16682 17.5276 10.2596 17.5276C11.492 17.5276 12.6137 17.2441 13.6218 16.6742C14.6298 16.1043 15.388 15.3359 15.8907 14.3662L18.6934 15.9625C17.8699 17.4 16.7085 18.5427 15.2035 19.3904C13.6984 20.241 12.0515 20.6635 10.2568 20.6635L10.2596 20.655Z" fill="black"/>
<path d="M24.1767 3.6259C23.7933 4.00867 23.339 4.19864 22.8165 4.19864C22.294 4.19864 21.8397 4.00867 21.4563 3.6259C21.073 3.24313 20.8827 2.79231 20.8827 2.26778C20.8827 1.74324 21.0701 1.29242 21.4421 0.909651C21.8169 0.526881 22.2741 0.336914 22.8165 0.336914C23.3589 0.336914 23.816 0.529717 24.1909 0.909651C24.5657 1.29242 24.7503 1.74607 24.7503 2.26778C24.7503 2.78948 24.5572 3.24313 24.1767 3.6259ZM21.303 20.292V6.29962H24.33V20.292H21.303Z" fill="black"/>
<path d="M35.2059 5.93399C36.8131 5.93399 38.1109 6.44718 39.1019 7.47357C40.0929 8.49996 40.587 9.90913 40.587 11.6982V20.2893H37.56V12.0044C37.56 10.961 37.2789 10.1558 36.7194 9.59724C36.16 9.03868 35.3933 8.75798 34.4222 8.75798C33.3573 8.75798 32.4969 9.08971 31.8438 9.75035C31.1907 10.4138 30.8641 11.426 30.8641 12.787V20.2864H27.837V6.29407H30.8641V8.086C31.7785 6.64849 33.2267 5.93115 35.2087 5.93115L35.2059 5.93399Z" fill="black"/>
<path d="M51.6588 9.20873H48.1831V15.9256C48.1831 16.504 48.3137 16.918 48.575 17.1703C48.8362 17.4227 49.2252 17.5616 49.7392 17.59C50.2532 17.6183 50.8921 17.6127 51.6588 17.5758V20.2892C49.3417 20.5699 47.6776 20.3686 46.6696 19.6881C45.6615 19.0076 45.156 17.7516 45.156 15.9228V9.2059H42.5776V6.29685H45.156V3.27438L48.1831 2.37842V6.29685H51.6588V9.2059V9.20873Z" fill="black"/>
<path d="M64.9426 6.29984H67.9697V20.2922H64.9426V18.2763C63.8039 19.8612 62.1683 20.6551 60.0386 20.6551C58.1133 20.6551 56.4691 19.9406 55.1061 18.5145C53.7431 17.0883 53.0587 15.3474 53.0587 13.2946C53.0587 11.2418 53.7402 9.47825 55.1061 8.06058C56.4691 6.64292 58.1133 5.93408 60.0386 5.93408C62.1683 5.93408 63.8039 6.71663 64.9426 8.28457V6.297V6.29984ZM57.3466 16.4985C58.1871 17.3491 59.2435 17.7716 60.5128 17.7716C61.7821 17.7716 62.8384 17.3463 63.679 16.4985C64.5195 15.6508 64.9398 14.5818 64.9398 13.2946C64.9398 12.0074 64.5195 10.9384 63.679 10.0907C62.8384 9.24291 61.7821 8.81762 60.5128 8.81762C59.2435 8.81762 58.1871 9.24291 57.3466 10.0907C56.506 10.9413 56.0858 12.0074 56.0858 13.2946C56.0858 14.5818 56.506 15.6508 57.3466 16.4985Z" fill="black"/>
<path d="M78.7036 2.15714C77.3406 2.04373 76.3268 2.27906 75.6624 2.85747C74.9979 3.43588 74.6685 4.39705 74.6685 5.741V6.29956H78.7036V8.09149H74.6685V20.2919H72.817V8.09149H70.4346V6.29956H72.817V5.741C72.817 3.91221 73.3253 2.52857 74.3448 1.5844C75.3642 0.643074 76.8153 0.237621 78.7036 0.368046V2.15998V2.15714Z" fill="black"/>
<path d="M82.5172 8.62181C83.3776 6.92345 84.8513 6.07568 86.947 6.07568V7.86761C85.6748 7.86761 84.6213 8.24188 83.7808 8.98757C82.9403 9.73326 82.52 10.9099 82.52 12.5147V20.2949H80.6714V6.30251H82.52V8.62465L82.5172 8.62181Z" fill="black"/>
<path d="M95.0997 5.9624C97.1726 5.9624 98.8508 6.69392 100.132 8.15979C101.412 9.62565 102.051 11.3552 102.051 13.3513C102.051 13.5583 102.031 13.8446 101.994 14.2189H89.6902C89.8776 15.6366 90.4796 16.7622 91.499 17.5901C92.5184 18.4209 93.7736 18.8348 95.2701 18.8348C96.3349 18.8348 97.255 18.6165 98.0302 18.177C98.8054 17.7375 99.3904 17.1648 99.7822 16.456L101.407 17.4086C100.79 18.3982 99.9498 19.1807 98.8849 19.7591C97.8201 20.3375 96.6047 20.6267 95.2417 20.6267C93.0353 20.6267 91.2434 19.9378 89.8605 18.5569C88.4776 17.1761 87.7876 15.4211 87.7876 13.2946C87.7876 11.1681 88.4691 9.4612 89.8321 8.06055C91.1952 6.65989 92.9529 5.9624 95.1025 5.9624H95.0997ZM95.0997 7.75433C93.6429 7.75433 92.4219 8.18814 91.4422 9.05575C90.4625 9.92336 89.8776 11.0462 89.6902 12.427H100.146C99.9583 10.9526 99.3875 9.80428 98.4363 8.98487C97.4821 8.16546 96.3718 7.75433 95.0997 7.75433Z" fill="black"/>
<path d="M105.893 9.92894C105.893 10.5527 106.177 11.0489 106.745 11.4147C107.313 11.7804 108 12.0781 108.804 12.3078C109.607 12.5374 110.411 12.7671 111.215 12.9939C112.018 13.2236 112.697 13.6376 113.251 14.2386C113.804 14.8397 114.08 15.6251 114.08 16.5948C114.08 17.7885 113.608 18.7582 112.666 19.5067C111.723 20.2524 110.502 20.6266 109.008 20.6266C107.662 20.6266 106.518 20.3289 105.575 19.7307C104.632 19.1324 103.974 18.3584 103.599 17.4085L105.169 16.4842C105.43 17.2129 105.902 17.7856 106.583 18.2053C107.265 18.6249 108.074 18.8347 109.008 18.8347C109.943 18.8347 110.689 18.6533 111.306 18.2903C111.922 17.9274 112.231 17.3632 112.231 16.5976C112.231 15.9625 111.95 15.4607 111.391 15.0864C110.828 14.715 110.147 14.4116 109.343 14.1819C108.54 13.9523 107.736 13.7226 106.932 13.4958C106.129 13.2661 105.447 12.8578 104.888 12.2709C104.329 11.684 104.047 10.9128 104.047 9.96296C104.047 8.82599 104.502 7.87332 105.408 7.10778C106.313 6.34224 107.458 5.95947 108.841 5.95947C109.979 5.95947 110.979 6.21749 111.839 6.72785C112.7 7.24104 113.333 7.9357 113.745 8.81182L112.203 9.70778C111.66 8.40069 110.539 7.74857 108.841 7.74857C108.037 7.74857 107.344 7.9357 106.768 8.3128C106.189 8.6899 105.899 9.22578 105.899 9.92327L105.893 9.92894Z" fill="black"/>
<path d="M123.578 5.96218C125.279 5.96218 126.62 6.48105 127.599 7.51594C128.579 8.55084 129.07 9.94582 129.07 11.7009V20.292H127.222V11.7009C127.222 10.4505 126.889 9.48083 126.228 8.79184C125.563 8.10286 124.626 7.75695 123.411 7.75695C122.065 7.75695 120.972 8.18224 120.131 9.03001C119.291 9.88061 118.87 11.1905 118.87 12.9626V20.2948H117.022V0.702637H118.87V8.48279C119.915 6.80427 121.486 5.96501 123.578 5.96501V5.96218Z" fill="black"/>
</svg>
